<svg width="30" height="8" viewBox="0 0 30 8" fill="none" xmlns="http://www.w3.org/2000/svg">
<path d="M0.0354774 7.26174C0.0559402 7.33557 0.0968657 7.40268 0.137791 7.4698C0.151433 7.48993 0.151433 7.51007 0.165075 7.5302L0.178717 7.55034C0.185538 7.55705 0.185538 7.55705 0.192359 7.56376L0.526584 8H7.09513C7.02692 7.51007 7.20426 7 7.6067 6.65772L9.62569 4.93289C9.89853 4.69799 10.26 4.56376 10.6284 4.56376H19.366C19.7343 4.56376 20.0958 4.69799 20.3755 4.93289L22.3945 6.65772C22.7969 7 22.9674 7.51007 22.8992 8H29.7406L29.8293 7.89262C30.0885 7.57047 30.0475 7.09396 29.7406 6.8255L22.4013 0.208054C22.3808 0.187919 22.3467 0.174497 22.3262 0.161074C22.3058 0.147651 22.2921 0.120805 22.2649 0.107383C22.2444 0.0939597 22.2239 0.0939597 22.2103 0.0872483C22.1625 0.0671141 22.1148 0.0536913 22.0671 0.0402685C22.0193 0.0268456 21.9716 0.0134228 21.917 0.0134228C21.8965 0.00671141 21.8829 0 21.8692 0H8.12509C8.11145 0 8.09781 0.00671141 8.08416 0.00671141C8.03642 0.00671141 7.98867 0.0201342 7.94092 0.033557C7.89318 0.0469799 7.84543 0.0604027 7.79769 0.0805369C7.77722 0.0872483 7.74994 0.0939597 7.72948 0.100671C7.70901 0.114094 7.69537 0.134228 7.67491 0.147651C7.65445 0.161074 7.62716 0.167785 7.61352 0.187919L0.308314 6.42282C0.308314 6.42282 0.301493 6.42282 0.294672 6.42953C0.294672 6.43624 0.294672 6.44295 0.287851 6.44295L0.281031 6.44966C0.260568 6.4698 0.246926 6.49664 0.226463 6.51678C0.158254 6.5906 0.103687 6.66443 0.069582 6.75839C0.0422983 6.8255 0.0150147 6.89933 0.00819374 6.97315C0.00819374 6.97315 0.00137281 6.97987 0.00137281 6.98658C-0.00544811 7.04698 0.0150147 7.10738 0.0218356 7.16779C0.0286565 7.20134 0.0286565 7.22819 0.0354774 7.26174ZM22.0807 2.03356L27.1009 6.56376C27.1418 6.59731 27.1759 6.6443 27.21 6.68456H24.8432L21.2281 3.59732L22.0807 2.03356ZM20.5392 1.57047L19.7616 2.98658H10.2328L9.45517 1.57047H20.5392ZM2.94801 6.24832L7.9 2.01342L8.76626 3.5906L5.18527 6.65101L2.75702 6.43624C2.81841 6.36913 2.87298 6.30201 2.94801 6.24832Z" fill="#2D78F7"/>
</svg>
