<svg width="20" height="14" viewBox="0 0 20 14" fill="none" xmlns="http://www.w3.org/2000/svg">
<path fill-rule="evenodd" clip-rule="evenodd" d="M0 7C0 6.44772 0.447715 6 1 6H11C11.5523 6 12 6.44772 12 7C12 7.55228 11.5523 8 11 8H1C0.447715 8 0 7.55228 0 7Z" fill="#2D78F7"/>
<path fill-rule="evenodd" clip-rule="evenodd" d="M10.5528 0.105579C10.8916 -0.0638134 11.297 -0.0272575 11.6 0.200006L19.6 6.20001C19.8518 6.38886 20 6.68525 20 7.00001C20 7.31476 19.8518 7.61115 19.6 7.80001L11.6 13.8C11.297 14.0273 10.8916 14.0638 10.5528 13.8944C10.214 13.725 10 13.3788 10 13V1.00001C10 0.621234 10.214 0.274971 10.5528 0.105579ZM12 3.00001V11L17.3333 7.00001L12 3.00001Z" fill="#2D78F7"/>
</svg>
