<svg width="20" height="14" viewBox="0 0 20 14" fill="none" xmlns="http://www.w3.org/2000/svg">
<path fill-rule="evenodd" clip-rule="evenodd" d="M8 7.00001C8 6.44772 8.44772 6.00001 9 6.00001H19C19.5523 6.00001 20 6.44772 20 7.00001C20 7.55229 19.5523 8.00001 19 8.00001H9C8.44772 8.00001 8 7.55229 8 7.00001Z" fill="#2D78F7"/>
<path fill-rule="evenodd" clip-rule="evenodd" d="M9.44721 0.105579C9.786 0.274971 10 0.621234 10 1.00001V13C10 13.3788 9.786 13.725 9.44721 13.8944C9.10843 14.0638 8.70302 14.0273 8.4 13.8L0.4 7.80001C0.148194 7.61115 0 7.31476 0 7.00001C0 6.68525 0.148194 6.38886 0.4 6.20001L8.4 0.200006C8.70302 -0.0272575 9.10843 -0.0638134 9.44721 0.105579ZM2.66667 7.00001L8 11V3.00001L2.66667 7.00001Z" fill="#2D78F7"/>
</svg>
