<svg width="80" height="86" viewBox="0 0 80 86" fill="none" xmlns="http://www.w3.org/2000/svg">
<circle cx="40" cy="40" r="40" fill="#2D78F7" fill-opacity="0.1"/>
<path d="M60.8457 62.8304L40.0231 83.4531L19.2006 62.8304C17.8272 61.494 16.7453 59.8876 16.0232 58.1124C15.3011 56.3373 14.9544 54.4319 15.0048 52.5162C15.0553 50.6004 15.5018 48.7159 16.3164 46.9813C17.131 45.2466 18.2959 43.6994 19.7378 42.4371C21.1797 41.1747 22.8673 40.2246 24.6944 39.6466C26.5216 39.0685 28.4486 38.875 30.3542 39.0783C32.2597 39.2816 34.1026 39.8772 35.7667 40.8277C37.4307 41.7782 38.88 43.0629 40.0231 44.601C41.1712 43.0741 42.6222 41.8006 44.2851 40.8602C45.948 39.9198 47.7872 39.3328 49.6874 39.1358C51.5876 38.9389 53.508 39.1363 55.3285 39.7157C57.1489 40.2951 58.8301 41.2441 60.267 42.5031C61.7038 43.7621 62.8653 45.3042 63.6787 47.0328C64.4922 48.7614 64.9401 50.6392 64.9944 52.5489C65.0487 54.4585 64.7083 56.3588 63.9944 58.1308C63.2806 59.9028 62.2086 61.5084 60.8457 62.8471" stroke="#2D78F7" stroke-width="3.5" stroke-linecap="round" stroke-linejoin="round"/>
<path d="M40.023 44.5844L30.8806 53.7268C30.3601 54.2475 30.0677 54.9535 30.0677 55.6897C30.0677 56.4259 30.3601 57.1319 30.8806 57.6526L32.3881 59.1601C34.3038 61.0758 37.4133 61.0758 39.329 59.1601L42.1053 56.3838C43.7621 54.7271 46.0091 53.7963 48.3521 53.7963C50.6951 53.7963 52.9421 54.7271 54.5988 56.3838L60.8456 62.6306" stroke="#2D78F7" stroke-width="3.5" stroke-linecap="round" stroke-linejoin="round"/>
<path d="M41.4113 70.9596L46.964 76.5123" stroke="#2D78F7" stroke-width="3.5" stroke-linecap="round" stroke-linejoin="round"/>
<path d="M48.3521 64.0188L53.9048 69.5715" stroke="#2D78F7" stroke-width="3.5" stroke-linecap="round" stroke-linejoin="round"/>
</svg>
