<svg width="328" height="297" viewBox="0 0 328 297" fill="none" xmlns="http://www.w3.org/2000/svg">
<path d="M324.976 76.1345L245.04 2.26142C245.04 2.26142 244.293 2.26142 244.293 1.50761L243.545 0.753807H242.798C242.051 0.753807 242.051 0 241.304 0C240.557 0 240.557 0 239.81 0C239.81 0 239.81 0 239.063 0H88.9016C88.9016 0 88.9016 0 88.1545 0C87.4074 0 87.4074 0 86.6604 0C85.9133 0 85.9133 -7.12377e-08 85.1662 0.753807H84.4191L83.6721 1.50761C83.6721 1.50761 82.925 1.50761 82.925 2.26142L2.98829 71.6117C2.98829 71.6117 2.98829 72.3655 2.24122 72.3655C1.49414 73.1193 0.747072 73.8731 0.747072 75.3807C0.747072 76.1345 0 76.8883 0 77.6421C0 78.3959 0 79.1497 0 79.9035V80.6574C0 81.4112 0.747072 82.165 0.747072 82.9188V83.6726L156.138 293.231C157.632 295.492 160.62 297 162.862 297C165.85 297 168.091 295.492 169.585 293.231L326.47 88.1954C328.712 84.4264 328.712 79.1497 324.976 76.1345ZM115.796 51.2589H211.421C215.157 51.2589 219.639 52.7665 222.627 55.7817L245.04 75.3807C251.763 81.4112 252.51 91.2107 247.281 97.9949L177.056 191.467C174.068 195.99 168.838 198.251 163.609 198.251C158.379 198.251 153.15 195.99 150.161 191.467L79.9367 97.2411C74.7072 90.4568 75.4543 79.9035 82.1779 74.6269L104.59 55.0279C108.325 52.0127 112.061 51.2589 115.796 51.2589ZM271.934 74.6269L232.339 39.9518L242.051 22.6142L296.588 73.1193C297.335 73.8731 297.335 73.8731 298.082 74.6269H271.934ZM215.904 33.1675H111.314L103.096 17.3376H224.869L215.904 33.1675ZM95.6252 39.9518L56.7775 74.6269L29.8829 71.6117C30.63 70.8579 31.377 70.1041 32.1241 69.3503L86.6604 21.8604L95.6252 39.9518ZM54.5363 91.9645L154.644 226.896V260.063C153.15 259.31 151.656 257.802 150.909 256.294L29.1358 92.7183C28.3887 91.9645 27.6417 90.4568 27.6417 89.703L54.5363 91.9645ZM171.827 228.404L272.681 92.7183H300.323C299.576 94.2259 298.829 94.9797 298.082 96.4873L177.803 256.294C176.309 258.556 174.068 260.063 172.574 260.817V228.404H171.827Z" fill="#D9E0FF" fill-opacity="0.04"/>
<path d="M141.197 146.992C146.426 154.53 154.644 158.299 163.609 158.299C172.574 158.299 180.791 154.53 186.021 146.992L210.674 113.825C219.639 101.764 217.398 85.1802 206.939 75.3807L203.951 73.1193C198.721 67.8426 192.745 65.5812 186.021 65.5812H141.944C135.22 65.5812 128.496 67.8426 123.267 72.3655L120.279 74.6269C109.073 84.4264 107.578 101.01 116.543 113.071L141.197 146.992Z" fill="#D9E0FF" fill-opacity="0.04"/>
</svg>
