<svg width="163" height="40" viewBox="0 0 163 40" fill="none" xmlns="http://www.w3.org/2000/svg">
<path d="M43.5 10.1L32.8 0.3C32.8 0.3 32.7 0.3 32.7 0.2L32.6 0.1H32.5C32.4 0.1 32.4 0 32.3 0C32.2 0 32.2 0 32.1 0C32.1 0 32.1 0 32 0H11.9C11.9 0 11.9 0 11.8 0C11.7 0 11.7 0 11.6 0C11.5 0 11.5 -7.45058e-09 11.4 0.1H11.3L11.2 0.2C11.2 0.2 11.1 0.2 11.1 0.3L0.4 9.5C0.4 9.5 0.4 9.6 0.3 9.6C0.2 9.7 0.1 9.8 0.1 10C0.1 10.1 0 10.2 0 10.3C0 10.4 0 10.5 0 10.6V10.7C0 10.8 0.1 10.9 0.1 11V11.1L20.9 38.9C21.1 39.2 21.5 39.4 21.8 39.4C22.2 39.4 22.5 39.2 22.7 38.9L43.7 11.7C44 11.2 44 10.5 43.5 10.1ZM15.5 6.8H28.3C28.8 6.8 29.4 7 29.8 7.4L32.8 10C33.7 10.8 33.8 12.1 33.1 13L23.7 25.4C23.3 26 22.6 26.3 21.9 26.3C21.2 26.3 20.5 26 20.1 25.4L10.7 12.9C10 12 10.1 10.6 11 9.9L14 7.3C14.5 6.9 15 6.8 15.5 6.8ZM36.4 9.9L31.1 5.3L32.4 3L39.7 9.7C39.8 9.8 39.8 9.8 39.9 9.9H36.4ZM28.9 4.4H14.9L13.8 2.3H30.1L28.9 4.4ZM12.8 5.3L7.6 9.9L4 9.5C4.1 9.4 4.2 9.3 4.3 9.2L11.6 2.9L12.8 5.3ZM7.3 12.2L20.7 30.1V34.5C20.5 34.4 20.3 34.2 20.2 34L3.9 12.3C3.8 12.2 3.7 12 3.7 11.9L7.3 12.2ZM23 30.3L36.5 12.3H40.2C40.1 12.5 40 12.6 39.9 12.8L23.8 34C23.6 34.3 23.3 34.5 23.1 34.6V30.3H23Z" fill="#7C7C7C"/>
<path d="M18.9 19.5C19.6 20.5 20.7 21 21.9 21C23.1 21 24.2 20.5 24.9 19.5L28.2 15.1C29.4 13.5 29.1 11.3 27.7 10L27.3 9.7C26.6 9 25.8 8.7 24.9 8.7H19C18.1 8.7 17.2 9 16.5 9.6L16.1 9.9C14.6 11.2 14.4 13.4 15.6 15L18.9 19.5Z" fill="#7C7C7C"/>
<path d="M72.0999 30.3H60.6999V7.70002C60.6999 7.00002 60.3999 6.50002 59.9999 6.00002C59.0999 5.10002 57.3999 5.10002 56.5999 6.00002C56.0999 6.40002 55.8999 7.00002 55.8999 7.70002V32.6C55.8999 33.2 56.0999 33.8 56.5999 34.3C57.0999 34.8 57.5999 35 58.2999 35H72.1999C72.7999 35 73.3999 34.8 73.8999 34.4C74.3999 34 74.5999 33.4 74.5999 32.7C74.5999 32 74.2999 31.5 73.8999 31C73.2999 30.6 72.7999 30.3 72.0999 30.3Z" fill="#7C7C7C"/>
<path d="M100.1 9.30002C98.7999 7.90002 97.2999 6.80002 95.4999 6.10002C93.6999 5.30002 91.7999 5.00002 89.7999 5.00002C87.6999 5.00002 85.7999 5.40002 83.9999 6.20002C82.2999 7.00002 80.7999 8.10002 79.4999 9.40002C78.1999 10.8 77.1999 12.4 76.4999 14.2C75.7999 16 75.3999 18 75.3999 20.2C75.3999 22.3 75.7999 24.4 76.4999 26.2C77.1999 28 78.1999 29.6 79.4999 31C80.7999 32.4 82.2999 33.5 83.9999 34.2C85.7999 35 87.6999 35.3 89.7999 35.3C91.8999 35.3 93.7999 34.9 95.4999 34.2C97.2999 33.4 98.7999 32.3 100.1 31C101.4 29.6 102.4 28 103.1 26.2C103.8 24.4 104.2 22.3 104.2 20.2C104.2 18 103.8 16 103.1 14.2C102.4 12.3 101.4 10.7 100.1 9.30002ZM99.1999 20.2C99.1999 22.2 98.7999 24.1 97.9999 25.7C97.1999 27.3 96.0999 28.5 94.6999 29.4C93.2999 30.3 91.6999 30.7 89.8999 30.7C88.0999 30.7 86.3999 30.3 84.9999 29.4C83.5999 28.5 82.4999 27.3 81.6999 25.7C80.8999 24.1 80.4999 22.2 80.4999 20.2C80.4999 18.1 80.8999 16.3 81.6999 14.7C82.4999 13.1 83.5999 11.9 84.9999 11C86.3999 10.1 87.9999 9.70002 89.8999 9.70002C91.6999 9.70002 93.3999 10.1 94.6999 11C96.0999 11.9 97.1999 13.1 97.9999 14.7C98.7999 16.3 99.1999 18.1 99.1999 20.2Z" fill="#7C7C7C"/>
<path d="M129.3 19H122C121.3 19 120.8 19.2 120.3 19.7C119.9 20.1 119.6 20.7 119.6 21.4C119.6 22 119.8 22.6 120.3 23.1C120.8 23.5 121.3 23.7 122 23.7H126.8V29.6C126.2 29.9 125.5 30.1 124.7 30.3C121.6 31.1 118.6 30.7 116.3 29.3C114.8 28.4 113.5 27.1 112.6 25.6C111.7 24 111.2 22.2 111.2 20.2C111.2 18.2 111.7 16.4 112.6 14.8C113.5 13.2 114.7 12 116.3 11.1C117.9 10.2 119.7 9.70002 121.6 9.70002C122.6 9.70002 123.6 9.80002 124.5 10.1C125.4 10.3 126.3 10.6 127 11H127.1C127.2 11 127.4 11.1 127.5 11.2C128.3 11.5 129.2 11.2 129.8 10.6C130.3 10.1 130.5 9.60002 130.5 8.90002C130.5 8.50002 130.4 8.10003 130.2 7.80002C130 7.40002 129.7 7.10002 129.3 6.90002C128.2 6.20002 126.9 5.70002 125.6 5.40002C124.3 5.10002 122.9 4.90002 121.5 4.90002C119.3 4.90002 117.3 5.30002 115.5 6.00002C113.7 6.80002 112 7.80002 110.6 9.20002C109.2 10.6 108.1 12.2 107.3 14.1C106.5 15.9 106.2 17.9 106.2 20.1C106.2 22.2 106.6 24.2 107.3 26.1C108.1 27.9 109.2 29.5 110.6 30.9C112 32.3 113.6 33.4 115.5 34.2C117.4 35 119.4 35.3 121.5 35.3C123.2 35.3 124.8 35.1 126.3 34.6C127.8 34.1 129.2 33.4 130.5 32.6C130.8 32.4 131.1 32.1 131.3 31.8C131.5 31.4 131.7 31 131.7 30.5V21.2C131.7 20.6 131.5 20 131.1 19.5C130.6 19.2 130 19 129.3 19Z" fill="#7C7C7C"/>
<path d="M161.8 14.2C161.1 12.3 160.1 10.7 158.8 9.40002C157.5 8.00002 156 6.90002 154.2 6.20002C152.4 5.40002 150.5 5.10002 148.5 5.10002C146.4 5.10002 144.5 5.50002 142.7 6.30002C141 7.10002 139.5 8.20002 138.2 9.50002C136.9 10.9 135.9 12.5 135.2 14.3C134.5 16.1 134.1 18.1 134.1 20.3C134.1 22.4 134.5 24.5 135.2 26.3C135.9 28.1 136.9 29.7 138.2 31.1C139.5 32.5 141 33.6 142.7 34.3C144.5 35.1 146.4 35.4 148.5 35.4C150.6 35.4 152.5 35 154.2 34.3C156 33.5 157.5 32.4 158.8 31.1C160.1 29.7 161.1 28.1 161.8 26.3C162.5 24.5 162.9 22.4 162.9 20.3C162.8 18 162.5 16 161.8 14.2ZM157.9 20.2C157.9 22.2 157.5 24.1 156.7 25.7C155.9 27.3 154.8 28.5 153.4 29.4C152 30.3 150.4 30.7 148.6 30.7C146.8 30.7 145.1 30.3 143.7 29.4C142.3 28.5 141.2 27.3 140.4 25.7C139.6 24.1 139.2 22.2 139.2 20.2C139.2 18.1 139.6 16.3 140.4 14.7C141.2 13.1 142.3 11.9 143.7 11C145.1 10.1 146.7 9.70002 148.6 9.70002C150.4 9.70002 152.1 10.1 153.4 11C154.8 11.9 155.9 13.1 156.7 14.7C157.5 16.3 157.9 18.1 157.9 20.2Z" fill="#7C7C7C"/>
</svg>
