<svg width="80" height="88" viewBox="0 0 80 88" fill="none" xmlns="http://www.w3.org/2000/svg">
<circle cx="40" cy="40" r="40" fill="#1DC865" fill-opacity="0.1"/>
<path d="M67.203 50.8173L53.6244 38.3807C53.6244 38.3807 53.4975 38.3807 53.4975 38.2538L53.3706 38.1269H53.2437C53.1167 38.1269 53.1167 38 52.9898 38C52.8629 38 52.8629 38 52.736 38C52.736 38 52.736 38 52.6091 38H27.1015C27.1015 38 27.1015 38 26.9746 38C26.8477 38 26.8477 38 26.7208 38C26.5939 38 26.5939 38 26.467 38.1269H26.3401L26.2132 38.2538C26.2132 38.2538 26.0863 38.2538 26.0863 38.3807L12.5076 50.0558C12.5076 50.0558 12.5076 50.1827 12.3807 50.1827C12.2538 50.3096 12.1269 50.4365 12.1269 50.6904C12.1269 50.8173 12 50.9442 12 51.0711C12 51.198 12 51.3249 12 51.4518V51.5787C12 51.7056 12.1269 51.8325 12.1269 51.9594V52.0863L38.5228 87.3655C38.7766 87.7462 39.2843 88 39.665 88C40.1726 88 40.5533 87.7462 40.8071 87.3655L67.4569 52.8477C67.8376 52.2132 67.8376 51.3249 67.203 50.8173ZM31.67 46.6294H47.9137C48.5482 46.6294 49.3096 46.8832 49.8173 47.3909L53.6244 50.6904C54.7665 51.7056 54.8934 53.3553 54.0051 54.4975L42.0761 70.2335C41.5685 70.9949 40.6802 71.3756 39.7919 71.3756C38.9036 71.3756 38.0152 70.9949 37.5076 70.2335L25.5787 54.3706C24.6904 53.2284 24.8173 51.4518 25.9594 50.5635L29.7665 47.264C30.401 46.7563 31.0355 46.6294 31.67 46.6294ZM58.1929 50.5635L51.467 44.7259L53.1168 41.8071L62.3807 50.3096C62.5076 50.4365 62.5076 50.4365 62.6345 50.5635H58.1929ZM48.6751 43.5838H30.9086L29.5127 40.9188H50.198L48.6751 43.5838ZM28.2437 44.7259L21.6447 50.5635L17.0761 50.0558C17.203 49.9289 17.3299 49.802 17.4569 49.6751L26.7208 41.6802L28.2437 44.7259ZM21.264 53.4822L38.269 76.198V81.7817C38.0152 81.6548 37.7614 81.401 37.6345 81.1472L16.9492 53.6091C16.8223 53.4822 16.6954 53.2284 16.6954 53.1015L21.264 53.4822ZM41.1878 76.4518L58.3198 53.6091H63.0152C62.8883 53.8629 62.7614 53.9898 62.6345 54.2437L42.203 81.1472C41.9492 81.5279 41.5685 81.7817 41.3147 81.9086V76.4518H41.1878Z" fill="#1DC865"/>
<path d="M35.9848 62.7462C36.8731 64.0152 38.269 64.6497 39.7919 64.6497C41.3147 64.6497 42.7107 64.0152 43.599 62.7462L47.7868 57.1624C49.3096 55.132 48.9289 52.3401 47.1523 50.6904L46.6447 50.3096C45.7563 49.4213 44.7411 49.0406 43.599 49.0406H36.1117C34.9695 49.0406 33.8274 49.4213 32.9391 50.1827L32.4315 50.5635C30.5279 52.2132 30.2741 55.0051 31.797 57.0355L35.9848 62.7462Z" fill="#1DC865"/>
</svg>
