<svg width="164" height="40" viewBox="0 0 164 40" fill="none" xmlns="http://www.w3.org/2000/svg">
<path d="M43.8 10.4L33.1 0.599988C33.1 0.599988 33 0.599988 33 0.499988L32.9001 0.399988H32.8C32.7001 0.399988 32.7 0.299988 32.6 0.299988C32.5 0.299988 32.5 0.299988 32.4001 0.299988C32.4001 0.299988 32.4 0.299988 32.3 0.299988H12.2C12.2 0.299988 12.2 0.299988 12.1 0.299988C12 0.299988 12 0.299988 11.9 0.299988C11.8 0.299988 11.8 0.299988 11.7 0.399988H11.6L11.5 0.499988C11.5 0.499988 11.4 0.499988 11.4 0.599988L0.700049 9.79999C0.700049 9.79999 0.700049 9.89999 0.600049 9.89999C0.500049 9.99999 0.400049 10.1 0.400049 10.3C0.400049 10.4 0.300049 10.5 0.300049 10.6C0.300049 10.7 0.300049 10.8 0.300049 10.9V11C0.300049 11.1 0.400049 11.2 0.400049 11.3V11.4L21.2001 39.2C21.4001 39.5 21.8001 39.7 22.1 39.7C22.5 39.7 22.8 39.5 23 39.2L44 12C44.3 11.5 44.3 10.8 43.8 10.4ZM15.8 7.09999H28.6C29.1 7.09999 29.7001 7.29999 30.1 7.69999L33.1 10.3C34 11.1 34.1001 12.4 33.4001 13.3L24 25.7C23.6 26.3 22.9001 26.6 22.2001 26.6C21.5 26.6 20.8 26.3 20.4 25.7L11 13.2C10.3 12.3 10.4 10.9 11.3 10.2L14.3 7.59999C14.8 7.19999 15.3 7.09999 15.8 7.09999ZM36.7001 10.2L31.4 5.59999L32.7001 3.29999L40 9.99999C40.1 10.1 40.1001 10.1 40.2001 10.2H36.7001ZM29.2001 4.69999H15.2L14.1 2.59999H30.4L29.2001 4.69999ZM13.1 5.59999L7.90005 10.2L4.30005 9.79999C4.40005 9.69999 4.50005 9.59999 4.60005 9.49999L11.9 3.19999L13.1 5.59999ZM7.60005 12.5L21 30.4V34.8C20.8 34.7 20.6 34.5 20.5 34.3L4.20005 12.6C4.10005 12.5 4.00005 12.3 4.00005 12.2L7.60005 12.5ZM23.3 30.6L36.8 12.6H40.5C40.4001 12.8 40.3 12.9 40.2001 13.1L24.1 34.3C23.9 34.6 23.6 34.8 23.4 34.9V30.6H23.3Z" fill="#0D1C59"/>
<path d="M19.2001 19.8C19.9001 20.8 21 21.3 22.2001 21.3C23.4001 21.3 24.5 20.8 25.2001 19.8L28.5 15.4C29.7001 13.8 29.4 11.6 28 10.3L27.6 9.99999C26.9 9.29999 26.1 8.99999 25.2001 8.99999H19.3C18.4 8.99999 17.5 9.29999 16.8 9.89999L16.4 10.2C14.9 11.5 14.7 13.7 15.9 15.3L19.2001 19.8Z" fill="#0D1C59"/>
<path d="M72.3999 30.6H61V8.00001C61 7.30001 60.7 6.80001 60.2999 6.30001C59.3999 5.40001 57.7 5.40001 56.9 6.30001C56.4 6.70001 56.2 7.30001 56.2 8.00001V32.9C56.2 33.5 56.4 34.1 56.9 34.6C57.4 35.1 57.8999 35.3 58.5999 35.3H72.5C73.1 35.3 73.7 35.1 74.2 34.7C74.7 34.3 74.8999 33.7 74.8999 33C74.8999 32.3 74.6 31.8 74.2 31.3C73.6 30.9 73.0999 30.6 72.3999 30.6Z" fill="#0D1C59"/>
<path d="M100.4 9.60001C99.0999 8.20001 97.6 7.10001 95.8 6.40001C94 5.60001 92.0999 5.30001 90.0999 5.30001C87.9999 5.30001 86.1 5.70001 84.3 6.50001C82.6 7.30001 81.1 8.40001 79.8 9.70001C78.5 11.1 77.5 12.7 76.8 14.5C76.1 16.3 75.7 18.3 75.7 20.5C75.7 22.6 76.1 24.7 76.8 26.5C77.5 28.3 78.5 29.9 79.8 31.3C81.1 32.7 82.6 33.8 84.3 34.5C86.1 35.3 87.9999 35.6 90.0999 35.6C92.1999 35.6 94.1 35.2 95.8 34.5C97.6 33.7 99.0999 32.6 100.4 31.3C101.7 29.9 102.7 28.3 103.4 26.5C104.1 24.7 104.5 22.6 104.5 20.5C104.5 18.3 104.1 16.3 103.4 14.5C102.7 12.6 101.7 11 100.4 9.60001ZM99.5 20.5C99.5 22.5 99.1 24.4 98.3 26C97.5 27.6 96.4 28.8 95 29.7C93.6 30.6 92 31 90.2 31C88.3999 31 86.7 30.6 85.3 29.7C83.9 28.8 82.8 27.6 82 26C81.2 24.4 80.8 22.5 80.8 20.5C80.8 18.4 81.2 16.6 82 15C82.8 13.4 83.9 12.2 85.3 11.3C86.7 10.4 88.2999 10 90.2 10C92 10 93.7 10.4 95 11.3C96.4 12.2 97.5 13.4 98.3 15C99.1 16.6 99.5 18.4 99.5 20.5Z" fill="#0D1C59"/>
<path d="M129.6 19.3H122.3C121.6 19.3 121.1 19.5 120.6 20C120.2 20.4 119.9 21 119.9 21.7C119.9 22.3 120.1 22.9 120.6 23.4C121.1 23.8 121.6 24 122.3 24H127.1V29.9C126.5 30.2 125.8 30.4 125 30.6C121.9 31.4 118.9 31 116.6 29.6C115.1 28.7 113.8 27.4 112.9 25.9C112 24.3 111.5 22.5 111.5 20.5C111.5 18.5 112 16.7 112.9 15.1C113.8 13.5 115 12.3 116.6 11.4C118.2 10.5 120 10 121.9 10C122.9 10 123.9 10.1 124.8 10.4C125.7 10.6 126.6 10.9 127.3 11.3H127.4C127.5 11.3 127.7 11.4 127.8 11.5C128.6 11.8 129.5 11.5 130.1 10.9C130.6 10.4 130.8 9.90001 130.8 9.20001C130.8 8.80001 130.7 8.40001 130.5 8.10001C130.3 7.70001 130 7.40001 129.6 7.20001C128.5 6.50001 127.2 6.00001 125.9 5.70001C124.6 5.40001 123.2 5.20001 121.8 5.20001C119.6 5.20001 117.6 5.60001 115.8 6.30001C114 7.10001 112.3 8.10001 110.9 9.50001C109.5 10.9 108.4 12.5 107.6 14.4C106.8 16.2 106.5 18.2 106.5 20.4C106.5 22.5 106.9 24.5 107.6 26.4C108.4 28.2 109.5 29.8 110.9 31.2C112.3 32.6 113.9 33.7 115.8 34.5C117.7 35.3 119.7 35.6 121.8 35.6C123.5 35.6 125.1 35.4 126.6 34.9C128.1 34.4 129.5 33.7 130.8 32.9C131.1 32.7 131.4 32.4 131.6 32.1C131.8 31.7 132 31.3 132 30.8V21.5C132 20.9 131.8 20.3 131.4 19.8C130.9 19.5 130.3 19.3 129.6 19.3Z" fill="#0D1C59"/>
<path d="M162.1 14.5C161.4 12.6 160.4 11 159.1 9.70001C157.8 8.30001 156.3 7.20001 154.5 6.50001C152.7 5.70001 150.8 5.40001 148.8 5.40001C146.7 5.40001 144.8 5.80001 143 6.60001C141.3 7.40001 139.8 8.50001 138.5 9.80001C137.2 11.2 136.2 12.8 135.5 14.6C134.8 16.4 134.4 18.4 134.4 20.6C134.4 22.7 134.8 24.8 135.5 26.6C136.2 28.4 137.2 30 138.5 31.4C139.8 32.8 141.3 33.9 143 34.6C144.8 35.4 146.7 35.7 148.8 35.7C150.9 35.7 152.8 35.3 154.5 34.6C156.3 33.8 157.8 32.7 159.1 31.4C160.4 30 161.4 28.4 162.1 26.6C162.8 24.8 163.2 22.7 163.2 20.6C163.1 18.3 162.8 16.3 162.1 14.5ZM158.2 20.5C158.2 22.5 157.8 24.4 157 26C156.2 27.6 155.1 28.8 153.7 29.7C152.3 30.6 150.7 31 148.9 31C147.1 31 145.4 30.6 144 29.7C142.6 28.8 141.5 27.6 140.7 26C139.9 24.4 139.5 22.5 139.5 20.5C139.5 18.4 139.9 16.6 140.7 15C141.5 13.4 142.6 12.2 144 11.3C145.4 10.4 147 10 148.9 10C150.7 10 152.4 10.4 153.7 11.3C155.1 12.2 156.2 13.4 157 15C157.8 16.6 158.2 18.4 158.2 20.5Z" fill="#0D1C59"/>
</svg>
