<svg width="152" height="136" viewBox="0 0 152 136" fill="none" xmlns="http://www.w3.org/2000/svg">
<rect width="8" height="8" rx="4" fill="#EAF2FF"/>
<rect y="16" width="8" height="8" rx="4" fill="#EAF2FF"/>
<rect y="32" width="8" height="8" rx="4" fill="#EAF2FF"/>
<rect y="48" width="8" height="8" rx="4" fill="#EAF2FF"/>
<rect y="64" width="8" height="8" rx="4" fill="#EAF2FF"/>
<rect y="80" width="8" height="8" rx="4" fill="#EAF2FF"/>
<rect y="96" width="8" height="8" rx="4" fill="#EAF2FF"/>
<rect y="112" width="8" height="8" rx="4" fill="#EAF2FF"/>
<rect y="128" width="8" height="8" rx="4" fill="#EAF2FF"/>
<rect x="16" width="8" height="8" rx="4" fill="#EAF2FF"/>
<rect x="16" y="16" width="8" height="8" rx="4" fill="#EAF2FF"/>
<rect x="16" y="32" width="8" height="8" rx="4" fill="#EAF2FF"/>
<rect x="16" y="48" width="8" height="8" rx="4" fill="#EAF2FF"/>
<rect x="16" y="64" width="8" height="8" rx="4" fill="#EAF2FF"/>
<rect x="16" y="80" width="8" height="8" rx="4" fill="#EAF2FF"/>
<rect x="16" y="96" width="8" height="8" rx="4" fill="#EAF2FF"/>
<rect x="16" y="112" width="8" height="8" rx="4" fill="#EAF2FF"/>
<rect x="16" y="128" width="8" height="8" rx="4" fill="#EAF2FF"/>
<rect x="32" width="8" height="8" rx="4" fill="#EAF2FF"/>
<rect x="32" y="16" width="8" height="8" rx="4" fill="#EAF2FF"/>
<rect x="32" y="32" width="8" height="8" rx="4" fill="#EAF2FF"/>
<rect x="32" y="48" width="8" height="8" rx="4" fill="#EAF2FF"/>
<rect x="32" y="64" width="8" height="8" rx="4" fill="#EAF2FF"/>
<rect x="32" y="80" width="8" height="8" rx="4" fill="#EAF2FF"/>
<rect x="32" y="96" width="8" height="8" rx="4" fill="#EAF2FF"/>
<rect x="32" y="112" width="8" height="8" rx="4" fill="#EAF2FF"/>
<rect x="32" y="128" width="8" height="8" rx="4" fill="#EAF2FF"/>
<rect x="48" width="8" height="8" rx="4" fill="#EAF2FF"/>
<rect x="48" y="16" width="8" height="8" rx="4" fill="#EAF2FF"/>
<rect x="48" y="32" width="8" height="8" rx="4" fill="#EAF2FF"/>
<rect x="48" y="48" width="8" height="8" rx="4" fill="#EAF2FF"/>
<rect x="48" y="64" width="8" height="8" rx="4" fill="#EAF2FF"/>
<rect x="48" y="80" width="8" height="8" rx="4" fill="#EAF2FF"/>
<rect x="48" y="96" width="8" height="8" rx="4" fill="#EAF2FF"/>
<rect x="48" y="112" width="8" height="8" rx="4" fill="#EAF2FF"/>
<rect x="48" y="128" width="8" height="8" rx="4" fill="#EAF2FF"/>
<rect x="64" width="8" height="8" rx="4" fill="#EAF2FF"/>
<rect x="64" y="16" width="8" height="8" rx="4" fill="#EAF2FF"/>
<rect x="64" y="32" width="8" height="8" rx="4" fill="#EAF2FF"/>
<rect x="64" y="48" width="8" height="8" rx="4" fill="#EAF2FF"/>
<rect x="64" y="64" width="8" height="8" rx="4" fill="#EAF2FF"/>
<rect x="64" y="80" width="8" height="8" rx="4" fill="#EAF2FF"/>
<rect x="64" y="96" width="8" height="8" rx="4" fill="#EAF2FF"/>
<rect x="64" y="112" width="8" height="8" rx="4" fill="#EAF2FF"/>
<rect x="64" y="128" width="8" height="8" rx="4" fill="#EAF2FF"/>
<rect x="80" width="8" height="8" rx="4" fill="#EAF2FF"/>
<rect x="80" y="16" width="8" height="8" rx="4" fill="#EAF2FF"/>
<rect x="80" y="32" width="8" height="8" rx="4" fill="#EAF2FF"/>
<rect x="80" y="48" width="8" height="8" rx="4" fill="#EAF2FF"/>
<rect x="80" y="64" width="8" height="8" rx="4" fill="#EAF2FF"/>
<rect x="80" y="80" width="8" height="8" rx="4" fill="#EAF2FF"/>
<rect x="80" y="96" width="8" height="8" rx="4" fill="#EAF2FF"/>
<rect x="80" y="112" width="8" height="8" rx="4" fill="#EAF2FF"/>
<rect x="80" y="128" width="8" height="8" rx="4" fill="#EAF2FF"/>
<rect x="96" width="8" height="8" rx="4" fill="#EAF2FF"/>
<rect x="96" y="16" width="8" height="8" rx="4" fill="#EAF2FF"/>
<rect x="96" y="32" width="8" height="8" rx="4" fill="#EAF2FF"/>
<rect x="96" y="48" width="8" height="8" rx="4" fill="#EAF2FF"/>
<rect x="96" y="64" width="8" height="8" rx="4" fill="#EAF2FF"/>
<rect x="96" y="80" width="8" height="8" rx="4" fill="#EAF2FF"/>
<rect x="96" y="96" width="8" height="8" rx="4" fill="#EAF2FF"/>
<rect x="96" y="112" width="8" height="8" rx="4" fill="#EAF2FF"/>
<rect x="96" y="128" width="8" height="8" rx="4" fill="#EAF2FF"/>
<rect x="112" width="8" height="8" rx="4" fill="#EAF2FF"/>
<rect x="112" y="16" width="8" height="8" rx="4" fill="#EAF2FF"/>
<rect x="112" y="32" width="8" height="8" rx="4" fill="#EAF2FF"/>
<rect x="112" y="48" width="8" height="8" rx="4" fill="#EAF2FF"/>
<rect x="112" y="64" width="8" height="8" rx="4" fill="#EAF2FF"/>
<rect x="112" y="80" width="8" height="8" rx="4" fill="#EAF2FF"/>
<rect x="112" y="96" width="8" height="8" rx="4" fill="#EAF2FF"/>
<rect x="112" y="112" width="8" height="8" rx="4" fill="#EAF2FF"/>
<rect x="112" y="128" width="8" height="8" rx="4" fill="#EAF2FF"/>
<rect x="128" width="8" height="8" rx="4" fill="#EAF2FF"/>
<rect x="128" y="16" width="8" height="8" rx="4" fill="#EAF2FF"/>
<rect x="128" y="32" width="8" height="8" rx="4" fill="#EAF2FF"/>
<rect x="128" y="48" width="8" height="8" rx="4" fill="#EAF2FF"/>
<rect x="128" y="64" width="8" height="8" rx="4" fill="#EAF2FF"/>
<rect x="128" y="80" width="8" height="8" rx="4" fill="#EAF2FF"/>
<rect x="128" y="96" width="8" height="8" rx="4" fill="#EAF2FF"/>
<rect x="128" y="112" width="8" height="8" rx="4" fill="#EAF2FF"/>
<rect x="128" y="128" width="8" height="8" rx="4" fill="#EAF2FF"/>
<rect x="144" width="8" height="8" rx="4" fill="#EAF2FF"/>
<rect x="144" y="16" width="8" height="8" rx="4" fill="#EAF2FF"/>
<rect x="144" y="32" width="8" height="8" rx="4" fill="#EAF2FF"/>
<rect x="144" y="48" width="8" height="8" rx="4" fill="#EAF2FF"/>
<rect x="144" y="64" width="8" height="8" rx="4" fill="#EAF2FF"/>
<rect x="144" y="80" width="8" height="8" rx="4" fill="#EAF2FF"/>
<rect x="144" y="96" width="8" height="8" rx="4" fill="#EAF2FF"/>
<rect x="144" y="112" width="8" height="8" rx="4" fill="#EAF2FF"/>
<rect x="144" y="128" width="8" height="8" rx="4" fill="#EAF2FF"/>
</svg>
