<svg width="67" height="60" viewBox="0 0 67 60" fill="none" xmlns="http://www.w3.org/2000/svg">
<path d="M66.2437 15.3807L49.9492 0.456853C49.9492 0.456853 49.797 0.456853 49.797 0.304568L49.6447 0.152284H49.4924C49.3401 0.152284 49.3401 0 49.1878 0C49.0355 0 49.0355 0 48.8833 0C48.8833 0 48.8832 0 48.731 0H18.1218C18.1218 0 18.1218 0 17.9695 0C17.8173 0 17.8173 0 17.665 0C17.5127 0 17.5127 -1.13461e-08 17.3604 0.152284H17.2081L17.0558 0.304568C17.0558 0.304568 16.9036 0.304569 16.9036 0.456853L0.609137 14.467C0.609137 14.467 0.609137 14.6193 0.456853 14.6193C0.304569 14.7716 0.152284 14.9239 0.152284 15.2284C0.152284 15.3807 0 15.533 0 15.6853C0 15.8376 0 15.9898 0 16.1421V16.2944C0 16.4467 0.152284 16.599 0.152284 16.7513V16.9036L31.8274 59.2386C32.132 59.6954 32.7411 60 33.198 60C33.8071 60 34.264 59.6954 34.5685 59.2386L66.5482 17.8173C67.0051 17.0558 67.0051 15.9898 66.2437 15.3807ZM23.6041 10.3553H43.0964C43.8579 10.3553 44.7716 10.6599 45.3807 11.269L49.9492 15.2284C51.3198 16.4467 51.4721 18.4264 50.4061 19.797L36.0914 38.6802C35.4822 39.5939 34.4162 40.0508 33.3503 40.0508C32.2843 40.0508 31.2183 39.5939 30.6091 38.6802L16.2944 19.6447C15.2284 18.2741 15.3807 16.1421 16.7513 15.0761L21.3198 11.1167C22.0812 10.5076 22.8426 10.3553 23.6041 10.3553ZM55.4315 15.0761L47.3604 8.07106L49.3401 4.56853L60.4569 14.7716C60.6091 14.9239 60.6091 14.9239 60.7614 15.0761H55.4315ZM44.0102 6.70051H22.6904L21.0152 3.50254H45.8376L44.0102 6.70051ZM19.4924 8.07106L11.5736 15.0761L6.09137 14.467C6.24365 14.3147 6.39594 14.1624 6.54822 14.0102L17.665 4.41624L19.4924 8.07106ZM11.1168 18.5787L31.5228 45.8376V52.5381C31.2183 52.3858 30.9137 52.0812 30.7614 51.7766L5.93909 18.731C5.7868 18.5787 5.63452 18.2741 5.63452 18.1218L11.1168 18.5787ZM35.0254 46.1421L55.5838 18.731H61.2183C61.066 19.0355 60.9137 19.1878 60.7614 19.4924L36.2437 51.7766C35.9391 52.2335 35.4822 52.5381 35.1777 52.6904V46.1421H35.0254Z" fill="#0E101C" fill-opacity="0.1"/>
<path d="M28.7817 29.6954C29.8477 31.2183 31.5228 31.9797 33.3503 31.9797C35.1777 31.9797 36.8528 31.2183 37.9188 29.6954L42.9442 22.9949C44.7716 20.5584 44.3147 17.2081 42.1827 15.2284L41.5736 14.7716C40.5076 13.7056 39.2893 13.2487 37.9188 13.2487H28.934C27.5635 13.2487 26.1929 13.7056 25.1269 14.6193L24.5178 15.0761C22.2335 17.0558 21.9289 20.4061 23.7563 22.8426L28.7817 29.6954Z" fill="#0E101C" fill-opacity="0.1"/>
</svg>
