<svg width="38" height="34" viewBox="0 0 38 34" fill="none" xmlns="http://www.w3.org/2000/svg">
<path d="M31 12C26 4 19 1 19 1C19 1 12 4 7 12C2 20 1 29 1 29C1 29 9 33 19 33C29 33 37 29 37 29C37 29 36 20 31 12Z" stroke="black" stroke-width="1.5" stroke-linecap="round" stroke-linejoin="round"/>
<path d="M25.6667 15.1875C22.8889 10.6875 19 9 19 9C19 9 15.1111 10.6875 12.3333 15.1875C9.55555 19.6875 9 24.75 9 24.75C9 24.75 13.4444 27 19 27C24.5556 27 29 24.75 29 24.75C29 24.75 28.4444 19.6875 25.6667 15.1875Z" stroke="black" stroke-width="1.5" stroke-linecap="round" stroke-linejoin="round"/>
<path d="M1 29L9 25" stroke="black" stroke-width="1.5" stroke-linecap="round" stroke-linejoin="round"/>
<path d="M29 25L37 29" stroke="black" stroke-width="1.5" stroke-linecap="round" stroke-linejoin="round"/>
<path d="M19 9V1" stroke="black" stroke-width="1.5" stroke-linecap="round" stroke-linejoin="round"/>
</svg>
